<svg width="48" height="48" viewBox="0 0 48 48" fill="none" xmlns="http://www.w3.org/2000/svg">
<rect x="1" y="47" width="46" height="46" rx="23" transform="rotate(-90 1 47)" fill="#4E6AF3"/>
<rect x="1" y="47" width="46" height="46" rx="23" transform="rotate(-90 1 47)" stroke="#EEF1F5" stroke-width="2"/>
<path fill-rule="evenodd" clip-rule="evenodd" d="M17.6667 24C17.6667 23.4477 18.1144 23 18.6667 23L23.0001 23L23.0001 18.6667C23.0001 18.1144 23.4478 17.6667 24.0001 17.6667C24.5524 17.6667 25.0001 18.1144 25.0001 18.6667L25.0001 23L29.3333 23C29.8856 23 30.3333 23.4477 30.3333 24C30.3333 24.5523 29.8856 25 29.3333 25L25.0001 25L25.0001 29.3333C25.0001 29.8856 24.5524 30.3333 24.0001 30.3333C23.4478 30.3333 23.0001 29.8856 23.0001 29.3333L23.0001 25L18.6667 25C18.1144 25 17.6667 24.5523 17.6667 24Z" fill="white"/>
</svg>
