<svg width="27" height="16" viewBox="0 0 27 16" fill="none" xmlns="http://www.w3.org/2000/svg">
<g clip-path="url(#clip0_1074_13462)">
<path d="M27.1344 -0.976807H-0.132812V16.9774H27.1344V-0.976807Z" fill="#E30A17"/>
<path d="M9.52351 12.4893C12.0336 12.4893 14.0685 10.4795 14.0685 8.00036C14.0685 5.52122 12.0336 3.51147 9.52351 3.51147C7.01338 3.51147 4.97852 5.52122 4.97852 8.00036C4.97852 10.4795 7.01338 12.4893 9.52351 12.4893Z" fill="white"/>
<path d="M10.6586 11.59C12.6662 11.59 14.2937 9.98256 14.2937 7.9997C14.2937 6.01685 12.6662 4.40942 10.6586 4.40942C8.65095 4.40942 7.02344 6.01685 7.02344 7.9997C7.02344 9.98256 8.65095 11.59 10.6586 11.59Z" fill="#E30A17"/>
<path d="M13.1211 8.00045L17.2316 9.31989L14.6905 5.86572V10.1352L17.2316 6.681L13.1211 8.00045Z" fill="white"/>
</g>
<defs>
<clipPath id="clip0_1074_13462">
<rect y="0.5" width="27" height="15" rx="4" fill="white"/>
</clipPath>
</defs>
</svg>
