<svg width="768" height="106" viewBox="0 0 768 106" fill="none" xmlns="http://www.w3.org/2000/svg">
<g clip-path="url(#clip0_1_299)">
<path d="M768 73H769V72V30.3333C769 25.0157 763.897 21 758 21H426C420.714 21 416.05 23.3984 411.92 26.6404C408.062 29.668 404.578 33.508 401.423 36.9849C401.205 37.2247 400.989 37.4627 400.775 37.6987C396.863 42.0022 391.199 45 384 45C376.914 45 371.241 41.9918 367.294 37.6677C367.099 37.4546 366.904 37.2397 366.706 37.0234C363.526 33.5343 360.005 29.6711 356.108 26.6291C351.962 23.3935 347.285 21 342 21H10C4.10333 21 -1 25.0157 -1 30.3333V72V73H0H768Z" fill="white" stroke="#EEF1F5" stroke-width="2"/>
<rect width="768" height="34" transform="translate(0 72)" fill="white"/>
</g>
<defs>
<clipPath id="clip0_1_299">
<rect width="768" height="106" fill="white"/>
</clipPath>
</defs>
</svg>
